# xmcd CD database file
#
# Track frame offsets:
#	150
#	17458
#	35174
#	50866
#	71647
#	87931
#	105107
#	121017
#	140605
#	158707
#	177373
#	195634
#	213664
#
# Disc length: 3116 seconds
#
# Revision: 2
# Processed by: cddbd v1.5.2PL0 Copyright (c) Steve Scherf et al.
# Submitted via: CDex 1.70
#
DISCID=b20c2a0d
DTITLE=Emmanuel Moire - La Ou Je Pars
DYEAR=2006
DGENRE=Chanson
TTITLE0=Celui Que J'Etais
TTITLE1=Le Sourire
TTITLE2=Je Vis Deux Fois
TTITLE3=La Ou Je Pars
TTITLE4=Ca Me Fait Du Bien
TTITLE5=Rien Ni Personne
TTITLE6=La Femme Qu'Il Me Faut
TTITLE7=La Fin
TTITLE8=Si C'Etait ca La Vie
TTITLE9=Plus Que Jamais
TTITLE10=Merci
TTITLE11=Le Sourire [Version acoustique]
TTITLE12=Si C'Etait ca La Vie [Version acoustique]
EXTD=YEAR: 2006
EXTT0=
EXTT1=
EXTT2=
EXTT3=
EXTT4=
EXTT5=
EXTT6=
EXTT7=
EXTT8=
EXTT9=
EXTT10=
EXTT11=
EXTT12=
PLAYORDER=
